<?xml version="1.0" standalone="no"?>
<!DOCTYPE svg PUBLIC "-//W3C//DTD SVG 20010904//EN"
 "http://www.w3.org/TR/2001/REC-SVG-20010904/DTD/svg10.dtd">
<svg version="1.0" xmlns="http://www.w3.org/2000/svg"
 width="500.000000pt" height="500.000000pt" viewBox="0 0 500.000000 500.000000"
 preserveAspectRatio="xMidYMid meet">

<g transform="translate(0.000000,500.000000) scale(0.100000,-0.100000)"
fill="#000000" stroke="none">
<path d="M0 2500 l0 -2500 2500 0 2500 0 0 2500 0 2500 -2500 0 -2500 0 0
-2500z m2225 2195 c66 -15 160 -42 210 -60 88 -32 315 -140 315 -150 0 -3 -17
3 -37 14 -52 26 -179 65 -293 89 -268 58 -521 29 -755 -88 -403 -202 -647
-620 -696 -1193 -26 -301 28 -663 147 -995 57 -158 184 -416 266 -542 l63 -95
5 135 5 135 93 5 94 5 337 1125 337 1125 189 -3 c104 -2 187 -1 184 2 -17 17
-188 93 -274 123 -204 69 -460 92 -650 58 -43 -8 -81 -12 -83 -10 -5 5 84 31
177 51 116 26 357 23 487 -4 557 -119 1051 -538 1349 -1147 181 -369 263 -769
235 -1142 -41 -538 -275 -954 -662 -1178 -64 -36 -61 -27 7 19 73 51 229 215
287 302 224 340 310 785 242 1250 -94 646 -480 1270 -994 1606 -41 27 -76 46
-77 41 -2 -5 114 -506 257 -1113 144 -608 264 -1117 267 -1132 l6 -28 108 0
c59 0 109 -3 111 -7 5 -12 -8 -432 -13 -438 -7 -6 -859 22 -866 28 -2 3 -1
103 3 222 l7 217 108 -4 c60 -1 109 -2 109 -1 0 1 -9 42 -21 91 l-20 90 -162
6 c-89 3 -239 8 -333 11 l-170 6 -25 -90 -26 -89 45 -6 c25 -3 77 -6 116 -6
l72 0 -3 -168 c-2 -92 -6 -191 -9 -220 l-5 -52 -117 1 c-64 0 -225 4 -357 8
-132 5 -241 8 -243 6 -1 -1 47 -54 107 -117 259 -271 512 -439 807 -537 169
-56 259 -72 404 -73 145 -1 253 14 365 49 275 87 537 318 680 603 16 30 45
100 67 155 45 117 42 78 -7 -95 -120 -420 -358 -721 -712 -899 -161 -81 -391
-127 -578 -116 -242 15 -420 63 -650 174 -248 121 -432 257 -650 482 -206 212
-354 424 -505 724 -193 380 -292 759 -307 1170 -22 625 194 1164 585 1461 152
114 376 209 554 234 35 5 133 7 218 6 125 -3 178 -9 275 -31z m-1110 -53 c-6
-4 -44 -33 -85 -64 -538 -403 -781 -1162 -639 -1998 122 -724 529 -1417 1081
-1841 323 -248 658 -393 1012 -436 180 -22 383 -9 551 36 61 16 111 28 113 26
9 -8 -188 -70 -288 -91 -438 -91 -908 15 -1345 303 -166 110 -259 186 -406
332 -441 441 -738 1029 -839 1666 -27 167 -38 516 -21 665 63 552 281 977 653
1273 56 45 259 168 213 129z"/>
<path d="M2377 2967 c-65 -215 -117 -398 -117 -404 0 -10 32 -13 128 -13 70 0
164 -3 210 -7 66 -5 82 -3 82 8 1 22 -174 809 -180 809 -3 0 -58 -177 -123
-393z"/>
</g>
</svg>
