<?xml version="1.0" encoding="UTF-8"?>
<svg version="1.1" xmlns="http://www.w3.org/2000/svg" width="500" height="500">
<path d="M0 0 C165 0 330 0 500 0 C500 165 500 330 500 500 C335 500 170 500 0 500 C0 335 0 170 0 0 Z " fill="#0D203B" transform="translate(0,0)"/>
<path d="M0 0 C-3.78254982 1.26084994 -5.05899006 0.4833666 -8.75 -0.875 C-25.69057375 -7.08654371 -46.34725919 -5.19889135 -62.54296875 2.17578125 C-80.50833158 11.65580887 -92.21320384 27.55308913 -98.90234375 46.44140625 C-110.28218756 83.33477889 -103.0775216 121.14456245 -86 155 C-85.67 149.72 -85.34 144.44 -85 139 C-82.03 139 -79.06 139 -76 139 C-75.76216797 137.96166016 -75.76216797 137.96166016 -75.51953125 136.90234375 C-73.98449198 130.46535585 -72.12141151 124.23472121 -69.97338867 117.9765625 C-68.34471611 113.17297118 -66.94608952 108.33384199 -65.625 103.4375 C-63.80489439 96.70702189 -61.77732445 90.06893804 -59.625 83.4375 C-56.66253768 74.29857556 -54.00147492 65.09730319 -51.48486328 55.82592773 C-49.56161777 48.79279185 -47.35355326 41.90170519 -45 35 C-38.4 35 -31.8 35 -25 35 C-21.37147055 49.91270628 -17.88064212 64.85074029 -14.48873901 79.81860352 C-12.06784547 90.48807635 -9.54162554 101.12271881 -6.81445312 111.71899414 C-5.68373003 116.1319551 -4.64945329 120.48368688 -4 125 C-2.91392928 117.71178915 -2.68824006 110.45303017 -2.46484375 103.09375 C-2.42175431 101.75995864 -2.37833763 100.42617782 -2.33460999 99.09240723 C-2.22122157 95.60735701 -2.11223603 92.12218294 -2.00421143 88.63696289 C-1.89287058 85.07038864 -1.77730467 81.50395147 -1.66210938 77.9375 C-1.43730424 70.95846074 -1.21715682 63.97928132 -1 57 C-3.97 57 -6.94 57 -10 57 C-10 50.07 -10 43.14 -10 36 C3.28792695 35.95109596 16.56976807 35.99722359 29.85351562 36.36010742 C32.05207999 36.41211824 34.25109977 36.4473389 36.45019531 36.46655273 C54.90303495 36.64225515 54.90303495 36.64225515 60.19824219 40.07080078 C62.15912665 42.29875753 63.57664036 44.41124502 65 47 C65.66 47.33 66.32 47.66 67 48 C66.99782471 48.92514404 66.99564941 49.85028809 66.9934082 50.8034668 C66.99171631 52.10968994 66.99002441 53.41591309 66.98828125 54.76171875 C66.9869368 55.4760759 66.98559235 56.19043304 66.98420715 56.92643738 C66.98148065 61.69907225 67.03895409 66.46735153 67.13009644 71.23904419 C67.18138534 74.5813364 67.1831234 77.922751 67.17700195 81.26538086 C67.18403835 82.97260629 67.21094656 84.67985811 67.25708008 86.38647461 C67.65756121 102.14323226 67.65756121 102.14323226 62.32356262 108.19108582 C57.77338256 112.69562191 54.43881165 114.53295414 48 115 C48.39380859 115.80219971 48.78761719 116.60439941 49.19335938 117.4309082 C50.65169349 120.408628 52.10471194 123.38881967 53.55419922 126.37084961 C54.18261934 127.66094388 54.81314064 128.95001684 55.44580078 130.23803711 C56.3548331 132.08963748 57.2562448 133.94477967 58.15625 135.80078125 C58.70087891 136.91622314 59.24550781 138.03166504 59.80664062 139.1809082 C61 142 61 142 61 145 C63.97 145 66.94 145 70 145 C70 151.6 70 158.2 70 165 C62.74 165 55.48 165 48 165 C46.6282523 161.93399339 45.25658155 158.86795233 43.88525391 155.80175781 C42.7075273 153.17127308 41.52448622 150.54326679 40.33740234 147.91699219 C37.53542844 141.71036533 34.76893249 135.50052014 32.15625 129.2109375 C31.72554199 128.19789551 31.29483398 127.18485352 30.85107422 126.14111328 C30.0492206 124.25032264 29.26860982 122.35034545 28.51220703 120.44091797 C28.14981934 119.59932129 27.78743164 118.75772461 27.4140625 117.890625 C27.1145166 117.15875977 26.8149707 116.42689453 26.50634766 115.67285156 C24.58280647 113.17728212 24.58280647 113.17728212 18 113 C18 122.9 18 132.8 18 143 C20.97 143 23.94 143 27 143 C27 149.93 27 156.86 27 164 C21.47216049 163.87876414 15.94442938 163.75555091 10.41674805 163.62768555 C8.54437689 163.58492418 6.6719812 163.54322129 4.79956055 163.50268555 C-7.15744855 163.24295969 -19.06463621 162.77570087 -31 162 C-31 155.07 -31 148.14 -31 141 C-27.7 141 -24.4 141 -21 141 C-21.33 138.36 -21.66 135.72 -22 133 C-23.07701172 133.01740234 -23.07701172 133.01740234 -24.17578125 133.03515625 C-34.1454817 133.12206522 -44.05075076 132.58833998 -54 132 C-54.495 135.96 -54.495 135.96 -55 140 C-51.7 140 -48.4 140 -45 140 C-45 146.93 -45 153.86 -45 161 C-57.54 161 -70.08 161 -83 161 C-63.5435782 191.11112897 -39.10900492 217.21923303 -2.69360352 225.52612305 C11.85216029 228.08511222 27.57543192 227.20521009 41 221 C41.91394531 220.62746094 42.82789063 220.25492188 43.76953125 219.87109375 C50.62743199 216.84771815 55.72989001 212.25277411 61 207 C61.70125 206.32195312 62.4025 205.64390625 63.125 204.9453125 C73.0472507 194.67423267 78.03001751 181.45595026 82 168 C85.47603139 177.3691707 77.02444635 192.905945 73.19140625 201.48046875 C64.50108739 219.96334986 49.50329086 234.51290407 30.32495117 241.63330078 C6.61294924 250.06184663 -16.98470808 246.26992168 -39.56201172 236.16210938 C-51.37805064 230.5297896 -61.26768181 222.6317972 -71 214 C-72.05476021 213.12584275 -73.11204086 212.25471736 -74.171875 211.38671875 C-77.90882057 208.23302574 -80.88428392 204.75616883 -84 201 C-84.44150391 200.47615723 -84.88300781 199.95231445 -85.33789062 199.41259766 C-92.37939676 191.03018891 -98.58975113 182.50762319 -103.91894531 172.93896484 C-104.64614068 171.63467722 -105.38266615 170.33555242 -106.12792969 169.04150391 C-118.72651564 147.14703037 -127.58786969 121.44217781 -128 96 C-128.02433105 95.13793945 -128.04866211 94.27587891 -128.07373047 93.38769531 C-128.41819067 80.49504215 -128.05015482 68.55528846 -125 56 C-124.79503906 54.97261719 -124.59007813 53.94523437 -124.37890625 52.88671875 C-120.7325987 35.78757465 -111.13801263 20.35021565 -99 8 C-98.38640625 7.37351562 -97.7728125 6.74703125 -97.140625 6.1015625 C-70.31063215 -19.23787519 -30.58152159 -16.14070373 0 0 Z " fill="#00B4FC" transform="translate(248,86)"/>
<path d="M0 0 C13.28792695 -0.04890404 26.56976807 -0.00277641 39.85351562 0.36010742 C42.05207999 0.41211824 44.25109977 0.4473389 46.45019531 0.46655273 C64.90303495 0.64225515 64.90303495 0.64225515 70.19824219 4.07080078 C72.15912665 6.29875753 73.57664036 8.41124502 75 11 C75.99 11.495 75.99 11.495 77 12 C76.99782471 12.92514404 76.99564941 13.85028809 76.9934082 14.8034668 C76.99171631 16.10968994 76.99002441 17.41591309 76.98828125 18.76171875 C76.9869368 19.4760759 76.98559235 20.19043304 76.98420715 20.92643738 C76.98148065 25.69907225 77.03895409 30.46735153 77.13009644 35.23904419 C77.18138534 38.5813364 77.1831234 41.922751 77.17700195 45.26538086 C77.18403835 46.97260629 77.21094656 48.67985811 77.25708008 50.38647461 C77.65756121 66.14323226 77.65756121 66.14323226 72.32356262 72.19108582 C67.77338256 76.69562191 64.43881165 78.53295414 58 79 C58.39380859 79.80219971 58.78761719 80.60439941 59.19335938 81.4309082 C60.65169349 84.408628 62.10471194 87.38881967 63.55419922 90.37084961 C64.18261934 91.66094388 64.81314064 92.95001684 65.44580078 94.23803711 C66.3548331 96.08963748 67.2562448 97.94477967 68.15625 99.80078125 C68.97319336 101.47394409 68.97319336 101.47394409 69.80664062 103.1809082 C71 106 71 106 71 109 C73.97 109 76.94 109 80 109 C80 115.6 80 122.2 80 129 C72.74 129 65.48 129 58 129 C56.6282523 125.93399339 55.25658155 122.86795233 53.88525391 119.80175781 C52.7075273 117.17127308 51.52448622 114.54326679 50.33740234 111.91699219 C47.53542844 105.71036533 44.76893249 99.50052014 42.15625 93.2109375 C41.72554199 92.19789551 41.29483398 91.18485352 40.85107422 90.14111328 C40.0492206 88.25032264 39.26860982 86.35034545 38.51220703 84.44091797 C38.14981934 83.59932129 37.78743164 82.75772461 37.4140625 81.890625 C37.1145166 81.15875977 36.8149707 80.42689453 36.50634766 79.67285156 C34.58280647 77.17728212 34.58280647 77.17728212 28 77 C28 86.9 28 96.8 28 107 C30.97 107 33.94 107 37 107 C37 113.93 37 120.86 37 128 C17.2 127.505 17.2 127.505 -3 127 C-3 120.07 -3 113.14 -3 106 C0.3 106 3.6 106 7 106 C6.98839844 104.56148682 6.97679687 103.12297363 6.96484375 101.64086914 C6.87398173 84.8991042 7.3224688 68.19930701 7.92712402 51.46966553 C8.05098765 48.01569612 8.16976806 44.56155158 8.2890625 41.10742188 C8.52125702 34.40477533 8.75877342 27.70232744 9 21 C6.03 21 3.06 21 0 21 C0 14.07 0 7.14 0 0 Z " fill="#FBFCFC" transform="translate(238,122)"/>
<path d="M0 0 C6.6 0 13.2 0 20 0 C23.6288589 14.91406027 27.11946482 29.85354994 30.51226807 44.82263184 C32.90659903 55.37276866 35.39832784 65.89020726 38.09765625 76.36743164 C42.30270442 92.77289232 42.30270442 92.77289232 42.125 101.125 C42.10695313 102.24132812 42.08890625 103.35765625 42.0703125 104.5078125 C42.04710937 105.33023438 42.02390625 106.15265625 42 107 C38.7 107 35.4 107 32 107 C32 113.93 32 120.86 32 128 C26.06 127.67 20.12 127.34 14 127 C14 120.07 14 113.14 14 106 C17.3 106 20.6 106 24 106 C23.505 102.04 23.505 102.04 23 98 C21.92298828 98.01740234 21.92298828 98.01740234 20.82421875 98.03515625 C10.8545183 98.12206522 0.94924924 97.58833998 -9 97 C-9.33 99.64 -9.66 102.28 -10 105 C-6.7 105 -3.4 105 0 105 C0 111.93 0 118.86 0 126 C-30.2494237 126.21369295 -30.2494237 126.21369295 -39 125 C-40 124 -40 124 -40.11352539 122.05053711 C-40.10567017 120.8015564 -40.10567017 120.8015564 -40.09765625 119.52734375 C-40.09443359 118.62822266 -40.09121094 117.72910156 -40.08789062 116.80273438 C-40.07951172 115.85720703 -40.07113281 114.91167969 -40.0625 113.9375 C-40.05798828 112.98810547 -40.05347656 112.03871094 -40.04882812 111.06054688 C-40.03700128 108.70700469 -40.01906521 106.35349468 -40 104 C-37.03 104 -34.06 104 -31 104 C-30.84144531 103.30777344 -30.68289062 102.61554688 -30.51953125 101.90234375 C-28.98449198 95.46535585 -27.12141151 89.23472121 -24.97338867 82.9765625 C-23.34471611 78.17297118 -21.94608952 73.33384199 -20.625 68.4375 C-18.80489439 61.70702189 -16.77732445 55.06893804 -14.625 48.4375 C-11.66253768 39.29857556 -9.00147492 30.09730319 -6.48486328 20.82592773 C-4.56161777 13.79279185 -2.35355326 6.90170519 0 0 Z " fill="#63D8FC" transform="translate(203,121)"/>
<path d="M0 0 C0.66 0.33 1.32 0.66 2 1 C1.17757812 1.59425781 0.35515625 2.18851562 -0.4921875 2.80078125 C-12.67579387 11.77209591 -21.57092005 21.71770555 -29 35 C-29.53367187 35.92039063 -30.06734375 36.84078125 -30.6171875 37.7890625 C-33.93671464 43.89492848 -36.20206933 50.19528863 -38.25 56.8125 C-38.49637207 57.59375244 -38.74274414 58.37500488 -38.99658203 59.17993164 C-42.78237922 72.05085719 -43.4106265 85.24271329 -43.375 98.5625 C-43.37468277 99.66860626 -43.37468277 99.66860626 -43.37435913 100.79705811 C-43.32167988 119.31069513 -40.24671991 136.56815034 -34 154 C-33.59394531 155.15757812 -33.18789062 156.31515625 -32.76953125 157.5078125 C-26.28254397 174.81912752 -17.43202482 191.46227511 -6 206 C-5.3090625 206.91136719 -4.618125 207.82273437 -3.90625 208.76171875 C17.61187111 236.26155636 45.96519612 254.50927003 80 262 C81.15242188 262.29390625 81.15242188 262.29390625 82.328125 262.59375 C86.58270863 263.24064576 90.82774381 263.19090152 95.125 263.1875 C96.06553223 263.18741943 97.00606445 263.18733887 97.97509766 263.18725586 C104.52313016 263.13343486 110.61926506 262.50067554 117 261 C119.32956919 260.62479505 121.66094301 260.31187427 124 260 C121.32107971 262.67892029 118.37843412 263.15637375 114.8125 264.0625 C114.16474609 264.23587891 113.51699219 264.40925781 112.84960938 264.58789062 C83.28502898 272.29653746 54.88401342 263.93718635 29.13134766 249.27148438 C18.26773923 242.79065131 8.79855839 234.02416245 0 225 C-0.63035156 224.41476562 -1.26070312 223.82953125 -1.91015625 223.2265625 C-30.49799816 196.10088535 -49.96507216 151.66275998 -51.22038269 112.39735413 C-52.11316228 77.24874747 -46.57754624 43.98413575 -22.0546875 17.1328125 C-15.59943581 10.35746568 -8.2206003 4.4839638 0 0 Z " fill="#60D3F6" transform="translate(150,79)"/>
<path d="M0 0 C2.26357525 2.26357525 2.59924095 3.50706029 3.4375 6.55078125 C3.69192871 7.46988281 3.94635742 8.38898438 4.20849609 9.3359375 C12.45148366 40.33485929 13.48969162 72.21121379 -2.81933594 101.01367188 C-9.90255405 112.93035148 -19.63561519 123.4805971 -32 130 C-32.66 129.67 -33.32 129.34 -34 129 C-33.46632813 128.62230469 -32.93265625 128.24460937 -32.3828125 127.85546875 C-15.62037559 115.47214598 -4.47199859 97.63013114 -1 77 C0.65 77 2.3 77 4 77 C4 70.4 4 63.8 4 57 C1.03 57 -1.94 57 -5 57 C-6.67401702 53.38951737 -8.34632323 49.77824774 -10.01708984 46.16625977 C-10.58498629 44.9391574 -11.15333911 43.71226612 -11.72216797 42.4855957 C-12.54255966 40.71622202 -13.36114177 38.94600967 -14.1796875 37.17578125 C-14.67194824 36.11270752 -15.16420898 35.04963379 -15.67138672 33.9543457 C-16.85339269 31.32600055 -17.95385562 28.68481452 -19 26 C-17.329375 26.061875 -17.329375 26.061875 -15.625 26.125 C-10.08193024 25.3713805 -6.75929468 22.13594141 -3.01171875 18.1875 C0.59311643 12.47576114 0.30058857 6.63063024 0 0 Z " fill="#03A5D7" transform="translate(314,174)"/>
<path d="M0 0 C5.86431389 -0.10389532 11.70680257 -0.04153249 17.5625 0.3125 C19.04943359 0.39951172 19.04943359 0.39951172 20.56640625 0.48828125 C23 1 23 1 25 4 C25.22705078 7.1862793 25.22705078 7.1862793 25.1953125 11.07421875 C25.1924826 11.7580513 25.18965271 12.44188385 25.18673706 13.1464386 C25.17555684 15.32697165 25.15045691 17.50709145 25.125 19.6875 C25.11496738 21.16731177 25.10584202 22.64712999 25.09765625 24.12695312 C25.07732739 27.75158874 25.03817672 31.3753327 25 35 C16.42 35 7.84 35 -1 35 C-1.08631265 23.2614797 -0.9039694 11.70317532 0 0 Z " fill="#0F223D" transform="translate(268,144)"/>
<path d="M0 0 C3.031875 -0.061875 6.06375 -0.12375 9.1875 -0.1875 C10.60712036 -0.22846802 10.60712036 -0.22846802 12.05541992 -0.27026367 C16.84936401 -0.3175874 20.15522761 -0.20273273 24 3 C26.45811625 6.68717438 26.31118164 8.64345704 26 13 C25.01 14.485 25.01 14.485 24 16 C23.34 16 22.68 16 22 16 C22 16.66 22 17.32 22 18 C22.66 18 23.32 18 24 18 C26.02558881 21.34939881 26.21738987 23.86962551 26.125 27.75 C26.10695313 28.73484375 26.08890625 29.7196875 26.0703125 30.734375 C26.04710937 31.48203125 26.02390625 32.2296875 26 33 C22.7 33 19.4 33 16 33 C15.67 29.37 15.34 25.74 15 22 C13.02 21.67 11.04 21.34 9 21 C9 25.29 9 29.58 9 34 C6.03 34 3.06 34 0 34 C0 22.78 0 11.56 0 0 Z " fill="#F3F4F5" transform="translate(298,357)"/>
<path d="M0 0 C4.29 0 8.58 0 13 0 C14.34342528 4.3721296 15.67504407 8.747274 17 13.125 C17.3815625 14.3625 17.763125 15.6 18.15625 16.875 C18.5171875 18.07382812 18.878125 19.27265625 19.25 20.5078125 C19.58515625 21.60754395 19.9203125 22.70727539 20.265625 23.84033203 C21.00233688 27.01005448 21.13664929 29.75884967 21 33 C18.36 33 15.72 33 13 33 C12.34 31.35 11.68 29.7 11 28 C7.7 27.67 4.4 27.34 1 27 C0.67 28.98 0.34 30.96 0 33 C-2.64 33 -5.28 33 -8 33 C-7.20945581 27.59054591 -5.904184 22.3549153 -4.5625 17.0625 C-4.34529297 16.19431641 -4.12808594 15.32613281 -3.90429688 14.43164062 C-2.68670751 9.594191 -1.40048528 4.78770549 0 0 Z " fill="#F4F5F6" transform="translate(229,357)"/>
<path d="M0 0 C4.29 0 8.58 0 13 0 C14.12629471 3.52042383 15.25107653 7.04131914 16.375 10.5625 C16.69210938 11.55314453 17.00921875 12.54378906 17.3359375 13.56445312 C18.23196073 16.37385929 19.11933449 19.18574486 20 22 C20.22204102 22.70495605 20.44408203 23.40991211 20.67285156 24.13623047 C21.63149717 27.30212799 22 29.63382942 22 33 C19.03 33 16.06 33 13 33 C12.505 30.525 12.505 30.525 12 28 C8.7 28 5.4 28 2 28 C1.01 30.475 1.01 30.475 0 33 C-2.64 33 -5.28 33 -8 33 C-6.54873071 26.28238229 -4.96006075 19.67696096 -2.875 13.125 C-1.47514227 8.71705103 -0.42801741 4.60118712 0 0 Z " fill="#F5F6F7" transform="translate(141,357)"/>
<path d="M0 0 C2.35117543 2.13394726 4.23769388 4.43238581 6.15625 6.95703125 C2.60989584 7.76599222 -0.28729681 7.75880092 -3.84375 6.95703125 C-6.89642296 4.94487746 -9.60123659 2.79470932 -12.38720703 0.44335938 C-29.08542486 -13.619243 -49.52344614 -21.21519925 -71.28125 -21.35546875 C-72.10963379 -21.3611084 -72.93801758 -21.36674805 -73.79150391 -21.37255859 C-77.77684766 -21.32518094 -81.34007421 -21.01745036 -85.19140625 -19.9609375 C-88.66590519 -19.08766771 -89.63531556 -19.03361836 -92.84375 -20.04296875 C-90.99231606 -20.69659485 -89.13744242 -21.34048093 -87.28125 -21.98046875 C-86.24871094 -22.34011719 -85.21617187 -22.69976562 -84.15234375 -23.0703125 C-53.38303134 -32.11583646 -23.72309745 -18.78078548 0 0 Z " fill="#00A5D9" transform="translate(274.84375,116.04296875)"/>
<path d="M0 0 C5.72880957 5.72880957 5.16637521 18.93298705 5.20654297 26.6315918 C5.17916354 30.75570572 5.11725466 34.87744628 5 39 C2.69 39 0.38 39 -2 39 C-3.99629688 34.88946392 -5.99005971 30.77771256 -7.98144531 26.66479492 C-8.65977934 25.26471479 -9.33881451 23.86497415 -10.01855469 22.46557617 C-10.99336698 20.45840073 -11.96568197 18.45003279 -12.9375 16.44140625 C-13.24373291 15.81222794 -13.54996582 15.18304962 -13.86547852 14.5348053 C-16 10.11387171 -16 10.11387171 -16 9 C-14.845 9 -13.69 9 -12.5 9 C-6.68877162 8.34623681 -3.62917935 4.23725993 0 0 Z " fill="#0F243E" transform="translate(311,191)"/>
<path d="M0 0 C0.66 0 1.32 0 2 0 C3.00530663 4.3031096 4.00191756 8.60811542 4.99072266 12.91503906 C5.32789066 14.37814776 5.66737679 15.84072435 6.00927734 17.30273438 C6.50196564 19.41138282 6.98612429 21.5218412 7.46875 23.6328125 C7.90864258 25.53377686 7.90864258 25.53377686 8.35742188 27.47314453 C9 31 9 31 9 37 C2.73 37 -3.54 37 -10 37 C-9.26792155 31.87545083 -8.41997642 27.63175361 -6.93359375 22.75390625 C-6.73524429 22.09792953 -6.53689484 21.44195282 -6.33253479 20.76609802 C-5.7056326 18.69674499 -5.07170173 16.62962613 -4.4375 14.5625 C-4.00799454 13.14923099 -3.5789537 11.73582069 -3.15039062 10.32226562 C-2.10562232 6.87986191 -1.05454463 3.43942319 0 0 Z " fill="#112844" transform="translate(211,161)"/>
<path d="M0 0 C3.63 0 7.26 0 11 0 C11.03738281 1.78148437 11.07476562 3.56296875 11.11328125 5.3984375 C11.17892156 7.72398008 11.24536955 10.04949996 11.3125 12.375 C11.33505859 13.550625 11.35761719 14.72625 11.38085938 15.9375 C11.41630859 17.05898438 11.45175781 18.18046875 11.48828125 19.3359375 C11.51446533 20.37282715 11.54064941 21.4097168 11.56762695 22.47802734 C11.71031006 23.31027832 11.85299316 24.1425293 12 25 C12.99 25.66 13.98 26.32 15 27 C15.1875 30.625 15.1875 30.625 15 34 C9.7311573 33.58675744 6.77055562 32.77055562 3 29 C0.93767227 25.71296689 0.70362726 22.98515712 0.5859375 19.140625 C0.54726563 18.02558594 0.50859375 16.91054688 0.46875 15.76171875 C0.4378125 14.60285156 0.406875 13.44398438 0.375 12.25 C0.33632813 11.07566406 0.29765625 9.90132813 0.2578125 8.69140625 C0.16360508 5.79452796 0.08071617 2.89728559 0 0 Z " fill="#EEEFF1" transform="translate(262,357)"/>
<path d="M0 0 C0.66 0 1.32 0 2 0 C2.33 0.66 2.66 1.32 3 2 C3.66 1.34 4.32 0.68 5 0 C8.375 -0.125 8.375 -0.125 12 0 C14.52160801 0 17.04437728 -0.05496723 19.5625 -0.1875 C23 0 23 0 24.6965332 1.13793945 C26.55718156 3.79595875 26.34011063 5.75910673 26.29296875 8.98046875 C26.28330078 10.14384766 26.27363281 11.30722656 26.26367188 12.50585938 C26.23853516 13.72080078 26.21339844 14.93574219 26.1875 16.1875 C26.16719727 18.02731445 26.16719727 18.02731445 26.14648438 19.90429688 C26.11108741 22.93663664 26.0617076 25.96809996 26 29 C25.01 29 24.02 29 23 29 C22.505 16.625 22.505 16.625 22 4 C18.14061025 2.65486576 18.14061025 2.65486576 15 4 C15 12.25 15 20.5 15 29 C13.68 29 12.36 29 11 29 C11 20.42 11 11.84 11 3 C8.69 3.66 6.38 4.32 4 5 C3.67 12.92 3.34 20.84 3 29 C2.01 29 1.02 29 0 29 C0 19.43 0 9.86 0 0 Z " fill="#029CDC" transform="translate(312,409)"/>
<path d="M0 0 C3.63 0 7.26 0 11 0 C11.10807762 4.20902296 11.1873684 8.41526202 11.25 12.625 C11.30027344 14.40970703 11.30027344 14.40970703 11.3515625 16.23046875 C11.47520127 27.29613881 11.47520127 27.29613881 7 32 C3.63025406 33.85336027 1.92893511 34 -2 34 C-2.1875 30.6875 -2.1875 30.6875 -2 27 C-1.50790039 26.53279541 -1.01580078 26.06559082 -0.50878906 25.58422852 C1.58739931 23.38323072 1.35948603 21.96225519 1.328125 18.96484375 C1.32296875 17.99095703 1.3178125 17.01707031 1.3125 16.01367188 C1.291875 14.99853516 1.27125 13.98339844 1.25 12.9375 C1.24484375 11.91849609 1.2396875 10.89949219 1.234375 9.84960938 C1.38597959 4.76005233 1.38597959 4.76005233 0 0 Z " fill="#F8F9FA" transform="translate(280,357)"/>
<path d="M0 0 C0.78246094 -0.02835937 1.56492187 -0.05671875 2.37109375 -0.0859375 C4.5625 0.375 4.5625 0.375 6.18115234 2.03759766 C7.9171149 4.97505002 7.90746623 6.83720608 7.85546875 10.234375 C7.84580078 11.34941406 7.83613281 12.46445312 7.82617188 13.61328125 C7.80103516 14.77214844 7.77589844 15.93101562 7.75 17.125 C7.73646484 18.29933594 7.72292969 19.47367187 7.70898438 20.68359375 C7.6736478 23.58119298 7.62430979 26.47786427 7.5625 29.375 C6.9025 29.375 6.2425 29.375 5.5625 29.375 C5.5625 28.715 5.5625 28.055 5.5625 27.375 C4.86125 27.890625 4.16 28.40625 3.4375 28.9375 C-0.09227563 30.70238782 -1.71132974 30.53425297 -5.4375 29.375 C-7.58303377 26.15669935 -7.73333868 25.10713493 -7.75 21.375 C-7.76675781 20.50875 -7.78351563 19.6425 -7.80078125 18.75 C-7.4375 16.375 -7.4375 16.375 -6.1796875 14.57421875 C-3.09352834 12.44988946 -0.08545234 13.19559251 3.5625 13.375 C3.5625 10.075 3.5625 6.775 3.5625 3.375 C1.2525 3.705 -1.0575 4.035 -3.4375 4.375 C-3.7675 5.695 -4.0975 7.015 -4.4375 8.375 C-5.0975 8.375 -5.7575 8.375 -6.4375 8.375 C-6.5625 5.5 -6.5625 5.5 -6.4375 2.375 C-4.03403621 -0.02846379 -3.29849805 0.05416253 0 0 Z " fill="#01A2E4" transform="translate(352.4375,408.625)"/>
<path d="M0 0 C9 0 9 0 12.0625 1.3125 C15.08394772 5.50354039 14.72623683 9.99278816 14 15 C13.01 16.485 13.01 16.485 12 18 C11.34 18 10.68 18 10 18 C10.3609375 18.62648438 10.721875 19.25296875 11.09375 19.8984375 C11.5578125 20.71570313 12.021875 21.53296875 12.5 22.375 C12.9640625 23.18710937 13.428125 23.99921875 13.90625 24.8359375 C15 27 15 27 15 29 C13.125 28.75 13.125 28.75 11 28 C9.76343754 26.00776049 8.99467559 23.98668899 8.125 21.8125 C6.98253159 19.50237241 6.98253159 19.50237241 3 19 C3 22.3 3 25.6 3 29 C2.01 29 1.02 29 0 29 C0 19.43 0 9.86 0 0 Z " fill="#00ABF0" transform="translate(245,409)"/>
<path d="M0 0 C1.6027832 1.15112305 1.6027832 1.15112305 3 3 C3.34057617 5.72729492 3.34057617 5.72729492 3.29296875 8.98046875 C3.28330078 10.14384766 3.27363281 11.30722656 3.26367188 12.50585938 C3.23853516 13.72080078 3.21339844 14.93574219 3.1875 16.1875 C3.17396484 17.41404297 3.16042969 18.64058594 3.14648438 19.90429688 C3.11108741 22.93663664 3.0617076 25.96809996 3 29 C2.01 28.67 1.02 28.34 0 28 C-0.99 28.66 -1.98 29.32 -3 30 C-6.18522831 30.49003513 -7.56011202 30.27344388 -10.3125 28.5625 C-12.80988569 24.77017358 -12.63141896 21.41183762 -12 17 C-11.0625 14.4375 -11.0625 14.4375 -9 13 C-5.92061635 12.6778659 -3.11380019 12.81948984 0 13 C-0.33 10.03 -0.66 7.06 -1 4 C-2.98 4 -4.96 4 -7 4 C-7.33 5.32 -7.66 6.64 -8 8 C-8.99 8 -9.98 8 -11 8 C-11.21620175 5.3335118 -11.30894168 3.55995679 -10 1.1875 C-6.89054856 -0.6587368 -3.51834318 -0.72353025 0 0 Z " fill="#00B3FA" transform="translate(277,409)"/>
<path d="M0 0 C3.3 0 6.6 0 10 0 C10.02886751 4.14581887 10.04675327 8.29161216 10.0625 12.4375 C10.07087891 13.62150391 10.07925781 14.80550781 10.08789062 16.02539062 C10.09111328 17.15009766 10.09433594 18.27480469 10.09765625 19.43359375 C10.10289307 20.47572021 10.10812988 21.51784668 10.11352539 22.59155273 C10 25 10 25 9 26 C6.03 26 3.06 26 0 26 C0 17.42 0 8.84 0 0 Z " fill="#E0E3E6" transform="translate(201,365)"/>
<path d="M0 0 C3.3 0 6.6 0 10 0 C10 8.58 10 17.16 10 26 C7.03 26 4.06 26 1 26 C0 25 0 25 -0.11352539 22.59155273 C-0.10828857 21.54942627 -0.10305176 20.5072998 -0.09765625 19.43359375 C-0.09443359 18.30888672 -0.09121094 17.18417969 -0.08789062 16.02539062 C-0.07951172 14.84138672 -0.07113281 13.65738281 -0.0625 12.4375 C-0.05798828 11.24962891 -0.05347656 10.06175781 -0.04882812 8.83789062 C-0.03699675 5.89187774 -0.02051287 2.94596319 0 0 Z " fill="#E0E3E6" transform="translate(173,365)"/>
<path d="M0 0 C1.32 0 2.64 0 4 0 C4 4.29 4 8.58 4 13 C6.64 13 9.28 13 12 13 C12 8.71 12 4.42 12 0 C12.99 0 13.98 0 15 0 C15 9.57 15 19.14 15 29 C14.01 29 13.02 29 12 29 C12 24.71 12 20.42 12 16 C9.36 16 6.72 16 4 16 C4 20.29 4 24.58 4 29 C2.68 29 1.36 29 0 29 C0 19.43 0 9.86 0 0 Z " fill="#0299D7" transform="translate(288,409)"/>
<path d="M0 0 C0.66 0 1.32 0 2 0 C2.33 0.66 2.66 1.32 3 2 C3.66 1.34 4.32 0.68 5 0 C11.16614907 -0.56055901 11.16614907 -0.56055901 13.7043457 1.14575195 C15.55798468 3.79854789 15.33998583 5.76763462 15.29296875 8.98046875 C15.28330078 10.14384766 15.27363281 11.30722656 15.26367188 12.50585938 C15.23853516 13.72080078 15.21339844 14.93574219 15.1875 16.1875 C15.17396484 17.41404297 15.16042969 18.64058594 15.14648438 19.90429688 C15.11108741 22.93663664 15.0617076 25.96809996 15 29 C14.01 29 13.02 29 12 29 C11.67 20.75 11.34 12.5 11 4 C9.68 3.67 8.36 3.34 7 3 C6.01 3.66 5.02 4.32 4 5 C3.49039309 7.51385259 3.49039309 7.51385259 3.48828125 10.4453125 C3.43510742 12.05986328 3.43510742 12.05986328 3.38085938 13.70703125 C3.35830078 14.83496094 3.33574219 15.96289062 3.3125 17.125 C3.26125977 18.82849609 3.26125977 18.82849609 3.20898438 20.56640625 C3.12630498 23.37750579 3.05722063 26.18828553 3 29 C2.01 29 1.02 29 0 29 C0 19.43 0 9.86 0 0 Z " fill="#00AFF5" transform="translate(368,409)"/>
<path d="M0 0 C8.58 0 17.16 0 26 0 C26 2.31 26 4.62 26 7 C17.42 7 8.84 7 0 7 C0 4.69 0 2.38 0 0 Z " fill="#F5F6F7" transform="translate(193,357)"/>
<path d="M0 0 C8.58 0 17.16 0 26 0 C26 2.31 26 4.62 26 7 C17.42 7 8.84 7 0 7 C0 4.69 0 2.38 0 0 Z " fill="#F6F6F7" transform="translate(165,357)"/>
<path d="M0 0 C1.98 0 3.96 0 6 0 C8 2 8 2 8.265625 4.09375 C8.26046875 4.8878125 8.2553125 5.681875 8.25 6.5 C8.25515625 7.2940625 8.2603125 8.088125 8.265625 8.90625 C8 11 8 11 6 13 C4.02 13 2.04 13 0 13 C0 8.71 0 4.42 0 0 Z " fill="#0C2A48" transform="translate(248,412)"/>
<path d="M0 0 C4.4741034 -0.36276514 4.4741034 -0.36276514 6.6496582 1.13793945 C8.57379035 3.79123107 8.34056103 5.72832968 8.29296875 8.98046875 C8.28330078 10.14384766 8.27363281 11.30722656 8.26367188 12.50585938 C8.23853516 13.72080078 8.21339844 14.93574219 8.1875 16.1875 C8.17396484 17.41404297 8.16042969 18.64058594 8.14648438 19.90429688 C8.11108741 22.93663664 8.0617076 25.96809996 8 29 C7.01 29 6.02 29 5 29 C4.67 20.75 4.34 12.5 4 4 C1.525 3.01 1.525 3.01 -1 2 C-0.67 1.34 -0.34 0.68 0 0 Z " fill="#00ABEF" transform="translate(330,409)"/>
<path d="M0 0 C0.99 0 1.98 0 3 0 C3 9.57 3 19.14 3 29 C2.01 29 1.02 29 0 29 C-0.8984165 19.13124027 -0.98945341 9.87931171 0 0 Z " fill="#00AEF3" transform="translate(300,409)"/>
<path d="M0 0 C0.66 0 1.32 0 2 0 C2 0.99 2 1.98 2 3 C2.66 3 3.32 3 4 3 C3.67 11.58 3.34 20.16 3 29 C2.01 29 1.02 29 0 29 C0 19.43 0 9.86 0 0 Z " fill="#00AEF3" transform="translate(312,409)"/>
<path d="M0 0 C1.134375 0.020625 2.26875 0.04125 3.4375 0.0625 C3.51846803 1.51992463 3.57667774 2.97862807 3.625 4.4375 C3.65980469 5.24960937 3.69460938 6.06171875 3.73046875 6.8984375 C3.63378906 7.61257813 3.53710938 8.32671875 3.4375 9.0625 C0.4375 11.0625 0.4375 11.0625 -2.25 10.6875 C-3.013125 10.48125 -3.77625 10.275 -4.5625 10.0625 C-4.58939216 8.58343108 -4.60884621 7.10422517 -4.625 5.625 C-4.63660156 4.80128906 -4.64820313 3.97757812 -4.66015625 3.12890625 C-4.49001835 -0.47121162 -3.73687179 0.06555915 0 0 Z " fill="#0C2542" transform="translate(352.5625,424.9375)"/>
<path d="M0 0 C2.64 0 5.28 0 8 0 C8.36248013 7.37042925 8.36248013 7.37042925 6.8125 10.0625 C4.26271335 11.38135516 2.68253902 10.7975116 0 10 C0 6.7 0 3.4 0 0 Z " fill="#0C223E" transform="translate(269,425)"/>
<path d="M0 0 C4.455 0.99 4.455 0.99 9 2 C9 2.33 9 2.66 9 3 C6.36 3 3.72 3 1 3 C1.33 6.3 1.66 9.6 2 13 C3.32 13.33 4.64 13.66 6 14 C6 14.99 6 15.98 6 17 C2.89156165 17.34538204 1.37484955 17.23301458 -1.3125 15.5625 C-3.78544131 11.80729283 -3.69869835 8.37690345 -3 4 C-1.5 1.4375 -1.5 1.4375 0 0 Z " fill="#029BDB" transform="translate(268,422)"/>
<path d="M0 0 C0.66 0.33 1.32 0.66 2 1 C1.11957031 1.67546875 0.23914063 2.3509375 -0.66796875 3.046875 C-1.84116596 3.94789046 -3.01434192 4.8489336 -4.1875 5.75 C-5.0547168 6.41515625 -5.0547168 6.41515625 -5.93945312 7.09375 C-8.54116146 9.09280273 -11.12818505 11.10284615 -13.6875 13.15625 C-16.70930304 15.56552539 -19.84303408 17.77155347 -23 20 C-19.30301783 11.14722648 -8.31507367 4.12866505 0 0 Z " fill="#57BFE1" transform="translate(150,79)"/>
<path d="M0 0 C2.875 -0.125 2.875 -0.125 6 0 C6.66 0.66 7.32 1.32 8 2 C7.46428571 5.53571429 7.46428571 5.53571429 6 7 C4.00041636 7.04080783 1.99954746 7.04254356 0 7 C0 4.69 0 2.38 0 0 Z " fill="#132640" transform="translate(307,364)"/>
<path d="M0 0 C0.66 0 1.32 0 2 0 C3.19287411 3.87684087 4 6.91621923 4 11 C2.02 11 0.04 11 -2 11 C-1.34 7.37 -0.68 3.74 0 0 Z " fill="#38485E" transform="translate(147,366)"/>
<path d="M0 0 C4.95 0 9.9 0 15 0 C15 6.93 15 13.86 15 21 C14.67 21 14.34 21 14 21 C13.93941406 19.80761719 13.87882812 18.61523438 13.81640625 17.38671875 C13.73198851 15.82030075 13.64734113 14.25389512 13.5625 12.6875 C13.50352539 11.50897461 13.50352539 11.50897461 13.44335938 10.30664062 C13.40146484 9.54931641 13.35957031 8.79199219 13.31640625 8.01171875 C13.27974854 7.31522217 13.24309082 6.61872559 13.20532227 5.90112305 C13.04418847 3.7783428 13.04418847 3.7783428 12 1 C8.04 1 4.08 1 0 1 C0 0.67 0 0.34 0 0 Z " fill="#7EABBF" transform="translate(279,144)"/>
<path d="M0 0 C2.39763185 2.39763185 2.34280586 3.33273498 2.625 6.625 C2.69976562 7.44226563 2.77453125 8.25953125 2.8515625 9.1015625 C2.92503906 10.04128906 2.92503906 10.04128906 3 11 C1.35 11 -0.3 11 -2 11 C-1.85892253 9.54119891 -1.71197585 8.08296449 -1.5625 6.625 C-1.48128906 5.81289063 -1.40007812 5.00078125 -1.31640625 4.1640625 C-1 2 -1 2 0 0 Z " fill="#283951" transform="translate(235,366)"/>
<path d="M0 0 C1.98 0.66 3.96 1.32 6 2 C6 2.33 6 2.66 6 3 C4.35 3.33 2.7 3.66 1 4 C0.67 5.32 0.34 6.64 0 8 C-0.99 8 -1.98 8 -3 8 C-3.36923077 3.44615385 -3.36923077 3.44615385 -1.5 1.1875 C-1.005 0.795625 -0.51 0.40375 0 0 Z " fill="#01A7EA" transform="translate(269,409)"/>
<path d="M0 0 C0.99 0.33 1.98 0.66 3 1 C1.515 4.465 1.515 4.465 0 8 C-0.66 8 -1.32 8 -2 8 C-2.125 5.125 -2.125 5.125 -2 2 C-1.34 1.34 -0.68 0.68 0 0 Z " fill="#00B0F5" transform="translate(348,409)"/>
<path d="M0 0 C0.99 0.33 1.98 0.66 3 1 C-0.3 3.31 -3.6 5.62 -7 8 C-7.66 7.67 -8.32 7.34 -9 7 C-7.57277341 5.8001722 -6.13284224 4.6154424 -4.6875 3.4375 C-3.88699219 2.77621094 -3.08648437 2.11492187 -2.26171875 1.43359375 C-1.51535156 0.96050781 -0.76898438 0.48742187 0 0 Z " fill="#0197C9" transform="translate(289,296)"/>
<path d="M0 0 C3.91211733 1.15585285 6.8745041 2.35534962 10 5 C8.53984709 4.71758359 7.08190207 4.42373386 5.625 4.125 C4.81289062 3.96257812 4.00078125 3.80015625 3.1640625 3.6328125 C1 3 1 3 -1 1 C-0.67 0.67 -0.34 0.34 0 0 Z " fill="#01A2E3" transform="translate(238,82)"/>
</svg>
