<?xml version="1.0" standalone="no"?>
<!DOCTYPE svg PUBLIC "-//W3C//DTD SVG 20010904//EN"
 "http://www.w3.org/TR/2001/REC-SVG-20010904/DTD/svg10.dtd">
<svg version="1.0" xmlns="http://www.w3.org/2000/svg"
 width="500.000000pt" height="500.000000pt" viewBox="0 0 500.000000 500.000000"
 preserveAspectRatio="xMidYMid meet">

<g transform="translate(0.000000,500.000000) scale(0.100000,-0.100000)"
fill="#000000" stroke="none">
<path d="M0 2500 l0 -2500 2500 0 2500 0 0 2500 0 2500 -2500 0 -2500 0 0
-2500z m2309 2390 c218 -20 420 -79 636 -187 136 -68 156 -84 44 -37 -112 48
-283 91 -417 105 -192 21 -411 -12 -592 -90 -372 -160 -644 -525 -744 -998
-71 -335 -60 -683 31 -1058 31 -125 40 -119 42 28 l1 88 66 -2 c49 -2 68 1 74
12 3 8 117 382 251 833 l244 818 149 -5 c82 -4 149 -8 150 -9 2 -3 344 -1453
383 -1625 13 -55 18 -63 37 -63 22 0 23 3 29 152 4 83 7 198 7 255 l0 103 -78
0 -78 0 4 173 c2 94 6 174 8 176 3 3 255 -3 561 -11 l556 -16 92 -94 92 -93
-14 -460 -14 -460 -92 -92 -92 -93 -57 0 c-32 0 -58 -3 -58 -6 0 -3 52 -118
117 -254 l116 -248 74 -7 73 -7 0 -175 0 -176 -182 7 c-101 3 -184 10 -186 14
-1 4 -89 198 -196 432 l-193 425 -60 3 -60 3 -6 -152 c-4 -84 -7 -196 -7 -251
l0 -98 58 0 c107 0 100 14 94 -183 -2 -95 -6 -173 -7 -175 -4 -4 -668 18 -672
22 -2 2 -1 81 3 175 l7 171 78 0 77 0 6 113 c3 61 8 199 11 305 l6 192 -28 1
c-170 3 -494 16 -497 20 -2 2 -1 75 2 162 l5 157 80 0 80 0 -7 32 c-3 18 -11
49 -17 70 l-10 38 -132 0 c-73 0 -182 3 -243 6 l-111 7 -17 -62 c-9 -33 -14
-66 -11 -71 3 -6 42 -10 85 -10 l79 0 -6 -162 c-3 -90 -6 -164 -7 -164 0 -1
-133 3 -295 8 -161 5 -295 7 -297 5 -9 -9 110 -287 178 -417 300 -575 769
-1005 1279 -1175 462 -153 918 -65 1248 241 130 120 274 348 347 547 39 107
42 102 13 -19 -46 -194 -135 -409 -229 -554 -398 -610 -1129 -779 -1840 -425
-386 191 -717 489 -987 887 -301 443 -486 954 -534 1482 -16 169 -6 471 20
616 132 749 596 1238 1233 1299 120 12 122 12 247 1z m-919 -64 c0 -2 -20 -16
-45 -30 -67 -40 -191 -141 -268 -220 -369 -378 -557 -941 -526 -1573 22 -457
128 -852 342 -1280 337 -671 903 -1191 1518 -1394 223 -73 345 -93 569 -93
183 0 252 9 450 59 56 14 -11 -16 -101 -45 -167 -55 -299 -73 -504 -67 -292 7
-548 73 -818 210 -804 410 -1389 1263 -1548 2253 -26 168 -37 525 -20 685 45
423 197 808 432 1096 111 135 282 277 439 362 79 43 80 43 80 37z m1285 -261
c554 -125 1070 -568 1380 -1185 232 -463 312 -1017 213 -1480 -94 -440 -317
-770 -655 -969 -29 -17 -53 -29 -53 -27 0 2 34 29 75 61 287 220 474 565 541
1000 20 131 22 425 5 560 -55 418 -211 814 -461 1165 -209 294 -499 546 -795
691 -229 111 -398 156 -620 166 -107 4 -166 2 -249 -12 -60 -9 -116 -19 -125
-22 -14 -4 -14 -4 0 6 25 16 187 61 259 71 124 17 352 6 485 -25z m1752 -2857
c-3 -8 -6 -5 -6 6 -1 11 2 17 5 13 3 -3 4 -12 1 -19z"/>
<path d="M1987 3478 c-48 -160 -86 -292 -84 -294 1 -1 73 -6 160 -10 133 -6
157 -5 153 7 -3 8 -33 140 -67 294 -34 154 -64 283 -68 287 -3 4 -45 -124 -94
-284z"/>
<path d="M3056 3075 c-3 -66 -8 -197 -11 -291 l-6 -171 92 -6 c51 -4 149 -7
219 -7 l128 0 6 198 c3 108 8 239 10 290 4 81 2 92 -12 93 -9 1 -108 4 -219 8
l-201 6 -6 -120z"/>
</g>
</svg>
