<?xml version="1.0" standalone="no"?>
<!DOCTYPE svg PUBLIC "-//W3C//DTD SVG 20010904//EN"
 "http://www.w3.org/TR/2001/REC-SVG-20010904/DTD/svg10.dtd">
<svg version="1.0" xmlns="http://www.w3.org/2000/svg"
 width="500.000000pt" height="500.000000pt" viewBox="0 0 500.000000 500.000000"
 preserveAspectRatio="xMidYMid meet">

<g transform="translate(0.000000,500.000000) scale(0.100000,-0.100000)"
fill="#000000" stroke="none">
<path d="M2469 3446 c45 -58 81 -114 81 -124 0 -15 -254 -1191 -285 -1319 l-5
-23 193 0 193 0 57 263 57 262 -25 90 c-14 49 -25 93 -25 97 0 4 24 24 54 44
61 40 48 3 122 342 l37 172 159 0 160 0 -6 -27 c-23 -109 -86 -397 -88 -399
-2 -1 -77 -39 -168 -85 l-166 -84 111 -421 110 -422 180 85 c99 46 184 88 189
93 4 4 -1 47 -13 96 -11 48 -18 90 -16 92 2 3 25 -8 50 -22 l45 -27 0 48 c0
47 -1 49 -46 72 -44 24 -94 73 -94 92 0 5 24 -8 53 -30 48 -36 108 -71 122
-71 3 0 5 21 5 48 0 46 -2 48 -48 73 -82 46 -131 87 -151 128 -31 60 -16 81
97 132 66 30 94 48 97 63 28 116 165 762 165 776 0 11 -13 34 -29 52 l-29 33
-612 3 -612 2 81 -104z"/>
<path d="M1447 2798 c-174 -409 -323 -760 -332 -781 l-15 -37 210 2 211 3 73
172 73 171 -98 114 -98 113 146 5 145 5 116 287 c64 158 120 284 124 282 9 -6
2 -511 -8 -591 l-5 -43 -173 -2 -173 -3 164 -184 163 -183 0 -62 c0 -33 4 -67
8 -74 6 -9 36 -12 113 -10 l104 3 107 485 107 485 0 231 1 231 -47 62 -47 61
-276 0 -276 0 -317 -742z"/>
<path d="M3802 2866 c-6 -13 -31 -41 -56 -62 -42 -35 -46 -42 -46 -82 l0 -44
39 32 c50 39 81 89 88 140 6 45 -8 53 -25 16z"/>
<path d="M3838 2786 c-10 -20 -36 -56 -58 -80 -37 -40 -41 -49 -38 -87 l3 -43
52 52 c58 58 81 115 66 165 l-8 30 -17 -37z"/>
</g>
</svg>
