<svg version="1.1" id="Layer_1" xmlns="http://www.w3.org/2000/svg" xmlns:xlink="http://www.w3.org/1999/xlink" x="0px" y="0px"
	 width="100%" viewBox="0 0 500 500" enable-background="new 0 0 500 500" xml:space="preserve">
<path fill="#0D213C" opacity="1.000000" stroke="none" 
	d="
M501.000000,180.000000 
	C501.000000,287.333313 501.000000,394.166595 501.000000,500.999939 
	C334.333405,500.999939 167.666794,500.999939 1.000147,500.999969 
	C1.000098,334.333435 1.000098,167.666870 1.000049,1.000236 
	C167.666519,1.000157 334.333038,1.000157 500.999786,1.000079 
	C501.000000,60.500000 501.000000,120.000000 501.000000,180.000000 
M269.036713,231.036041 
	C265.221985,231.866135 264.795410,229.154175 264.172974,226.493607 
	C257.433746,197.686737 250.681564,168.882874 243.898926,140.086182 
	C238.068954,115.334305 232.232559,90.583687 226.250473,65.868469 
	C225.876907,64.325066 224.249847,61.940704 223.136719,61.901249 
	C214.021744,61.578148 204.890335,61.719109 195.356094,61.719109 
	C195.011459,62.802357 194.494064,64.350014 194.025604,65.912346 
	C178.992416,116.048981 163.962936,166.186752 148.935516,216.325104 
	C145.706207,227.099548 145.710770,227.096588 134.712982,227.093811 
	C133.927536,227.093613 133.142044,227.223709 132.127197,227.313507 
	C131.760223,234.508423 131.407013,241.433395 130.499100,247.788330 
	C127.466293,231.958298 123.361740,216.245529 121.614235,200.274872 
	C117.422554,161.966675 122.029259,124.772308 139.947830,90.062767 
	C156.240616,58.502529 180.808716,36.539665 215.667145,27.446381 
	C244.266022,19.985985 272.118195,23.617680 299.298615,34.378075 
	C300.900726,35.012329 302.570160,35.476532 304.208252,36.019863 
	C283.726685,23.077524 261.500977,15.102425 237.597488,12.127254 
	C213.655426,9.147282 190.365829,11.833376 168.195251,21.633381 
	C133.438477,36.996815 110.493706,63.744610 96.044937,98.202522 
	C78.611450,139.778488 76.988739,183.064178 84.502037,226.776382 
	C94.810059,286.748230 119.935463,339.989319 161.106918,385.022888 
	C196.397018,423.623474 238.099747,451.783142 291.450012,458.259949 
	C324.190887,462.234741 354.825165,455.286743 382.001648,436.106750 
	C412.828735,414.350250 430.287476,383.552277 439.970123,347.801025 
	C441.316620,342.829376 442.247559,337.745209 443.370880,332.713104 
	C441.640076,333.917236 441.013794,335.399811 440.517914,336.924774 
	C435.957214,350.950531 429.545410,364.082489 421.038116,376.114960 
	C396.435455,410.912292 362.437134,427.711700 320.150604,426.569946 
	C286.669342,425.665985 257.021118,412.802826 230.105835,393.453247 
	C191.823547,365.931885 164.420334,329.595490 145.063004,286.961121 
	C141.096161,278.224182 138.160416,269.019104 135.727631,260.017822 
	C154.968933,260.603912 174.210236,261.190002 194.150024,261.797363 
	C194.150024,250.562653 194.150024,239.870117 194.150024,229.097656 
	C188.784332,228.787720 183.412674,228.477432 177.585434,228.140839 
	C179.032196,223.302826 180.245605,219.245117 181.059998,216.521790 
	C196.922455,216.521790 211.883896,216.436951 226.840591,216.664474 
	C228.205154,216.685226 230.204742,218.449783 230.750702,219.854843 
	C231.933365,222.898438 232.364822,226.233917 233.194901,229.848053 
	C227.757553,229.848053 222.688629,229.848053 216.917938,229.848053 
	C216.917938,240.732559 216.917938,251.298386 216.917938,262.442871 
	C234.017044,262.952332 251.446930,263.471619 269.009064,264.916626 
	C268.423737,284.844116 267.838409,304.771637 267.244293,324.998657 
	C261.666229,324.998657 256.586914,324.998657 250.843231,324.998657 
	C250.843231,336.705475 250.843231,348.105530 250.843231,359.929688 
	C272.806122,360.591095 295.018402,361.260010 317.939697,361.950287 
	C317.939697,350.018860 317.939697,338.607178 317.939697,326.709351 
	C313.115021,326.467865 307.911255,326.207397 303.540802,325.988647 
	C303.540802,308.863068 303.540802,292.412598 303.540802,275.714783 
	C305.691895,275.714783 307.016754,275.905212 308.268158,275.682556 
	C314.416870,274.588501 317.087494,277.603790 319.491669,283.082397 
	C330.706421,308.638855 342.436035,333.969604 354.051605,359.349030 
	C354.674774,360.710663 355.912415,362.808441 356.901459,362.829773 
	C368.304535,363.075897 379.714874,362.986816 391.726776,362.986816 
	C391.726776,351.983215 391.726776,340.567749 391.726776,328.908539 
	C388.709686,328.773010 385.552521,328.395416 382.422150,328.552307 
	C378.787231,328.734528 376.862579,327.394348 375.351410,323.951660 
	C370.811707,313.609497 365.813354,303.468842 361.006622,293.243652 
	C358.557678,288.034119 356.135834,282.811829 353.037964,276.172760 
	C364.725861,280.558624 369.714478,272.528595 375.763885,266.633179 
	C377.672150,264.773499 379.796875,263.075775 381.395966,260.978699 
	C382.595856,259.405182 383.767151,257.334564 383.834717,255.445328 
	C384.656464,232.474030 385.312469,209.496429 385.914612,186.517914 
	C386.096924,179.559753 387.941681,171.771423 385.461090,165.858459 
	C382.885620,159.719376 375.992859,155.391357 370.987152,150.272339 
	C370.870941,150.153473 370.761383,150.003082 370.617035,149.940567 
	C369.031647,149.253876 367.457367,148.037201 365.847443,147.985764 
	C330.220032,146.847763 294.588562,145.836533 258.957275,144.822128 
	C258.189423,144.800247 257.414581,145.024338 256.057800,145.216614 
	C256.057800,156.838593 256.057800,168.232117 256.057800,180.191757 
	C260.933716,180.191757 265.874512,180.191757 271.492218,180.191757 
	C270.934753,197.515991 270.395569,214.271439 269.036713,231.036041 
M45.488441,161.956299 
	C44.990314,167.093155 44.280693,172.219574 44.026848,177.368469 
	C41.553814,227.530762 51.019894,275.438293 71.995491,320.987854 
	C99.890732,381.563751 140.893875,430.451691 200.898819,461.416107 
	C238.117004,480.621857 277.546265,488.743835 319.323120,479.992432 
	C327.320526,478.317108 335.117737,475.686035 343.007324,473.495911 
	C342.883362,473.015381 342.759430,472.534821 342.635498,472.054291 
	C341.860504,472.104584 341.048431,472.021210 340.315826,472.224335 
	C301.199921,483.068451 263.325287,477.932983 226.652573,462.359497 
	C179.641510,442.395721 142.968689,409.544891 113.975418,368.063416 
	C81.210289,321.185425 61.575497,269.287964 56.725636,212.030502 
	C54.186562,182.054138 55.895287,152.465927 64.115303,123.432388 
	C75.121941,84.556374 94.797112,51.331642 127.733315,26.884642 
	C128.617935,26.228027 129.743744,25.896317 130.757065,25.413090 
	C130.310791,24.870983 129.864532,24.328876 129.418259,23.786772 
	C128.176285,24.392912 126.876709,24.904400 125.701103,25.619631 
	C111.924202,34.001392 99.771622,44.332211 89.427277,56.681286 
	C64.077682,86.943642 50.742950,122.293221 45.488441,161.956299 
M213.422256,42.907696 
	C206.113068,44.912601 198.803864,46.917503 191.494675,48.922405 
	C191.616486,49.414700 191.738312,49.906998 191.860123,50.399292 
	C193.574203,50.097874 195.277695,49.699242 197.004120,49.511017 
	C207.246658,48.394337 217.498138,46.383690 227.739868,46.423145 
	C255.728760,46.530979 281.483032,55.268608 305.336975,69.438530 
	C347.727112,94.619492 377.339417,131.278717 397.854187,175.473770 
	C416.023834,214.616684 423.604980,255.881805 418.888977,298.986694 
	C415.705414,328.084869 406.945984,355.435669 388.931274,378.871124 
	C380.747375,389.517548 370.641968,398.686859 362.062195,407.829376 
	C362.447449,407.663330 364.144379,407.150574 365.615540,406.263458 
	C377.865021,398.876953 388.476654,389.564545 397.375305,378.391327 
	C423.981323,344.984375 433.339905,306.094269 432.410767,264.341766 
	C431.477112,222.383667 419.638763,183.353989 398.399017,147.194351 
	C372.599487,103.271973 337.945160,69.170486 289.788727,50.375904 
	C265.386383,40.852104 240.171600,38.075569 213.422256,42.907696 
z"/>
<path fill="#00B6FD" opacity="1.000000" stroke="none" 
	d="
M134.749390,260.029816 
	C138.160416,269.019104 141.096161,278.224182 145.063004,286.961121 
	C164.420334,329.595490 191.823547,365.931885 230.105835,393.453247 
	C257.021118,412.802826 286.669342,425.665985 320.150604,426.569946 
	C362.437134,427.711700 396.435455,410.912292 421.038116,376.114960 
	C429.545410,364.082489 435.957214,350.950531 440.517914,336.924774 
	C441.013794,335.399811 441.640076,333.917236 443.370880,332.713104 
	C442.247559,337.745209 441.316620,342.829376 439.970123,347.801025 
	C430.287476,383.552277 412.828735,414.350250 382.001648,436.106750 
	C354.825165,455.286743 324.190887,462.234741 291.450012,458.259949 
	C238.099747,451.783142 196.397018,423.623474 161.106918,385.022888 
	C119.935463,339.989319 94.810059,286.748230 84.502037,226.776382 
	C76.988739,183.064178 78.611450,139.778488 96.044937,98.202522 
	C110.493706,63.744610 133.438477,36.996815 168.195251,21.633381 
	C190.365829,11.833376 213.655426,9.147282 237.597488,12.127254 
	C261.500977,15.102425 283.726685,23.077524 304.208252,36.019863 
	C302.570160,35.476532 300.900726,35.012329 299.298615,34.378075 
	C272.118195,23.617680 244.266022,19.985985 215.667145,27.446381 
	C180.808716,36.539665 156.240616,58.502529 139.947830,90.062767 
	C122.029259,124.772308 117.422554,161.966675 121.614235,200.274872 
	C123.361740,216.245529 127.466293,231.958298 130.826355,248.428070 
	C132.352219,252.721802 133.550812,256.375793 134.749390,260.029816 
z"/>
<path fill="#FDFDFE" opacity="1.000000" stroke="none" 
	d="
M269.856415,231.026901 
	C270.395569,214.271439 270.934753,197.515991 271.492218,180.191757 
	C265.874512,180.191757 260.933716,180.191757 256.057800,180.191757 
	C256.057800,168.232117 256.057800,156.838593 256.057800,145.216614 
	C257.414581,145.024338 258.189423,144.800247 258.957275,144.822128 
	C294.588562,145.836533 330.220032,146.847763 365.847443,147.985764 
	C367.457367,148.037201 369.031647,149.253876 370.617035,149.940567 
	C370.761383,150.003082 370.870941,150.153473 370.987152,150.272339 
	C375.992859,155.391357 382.885620,159.719376 385.461090,165.858459 
	C387.941681,171.771423 386.096924,179.559753 385.914612,186.517914 
	C385.312469,209.496429 384.656464,232.474030 383.834717,255.445328 
	C383.767151,257.334564 382.595856,259.405182 381.395966,260.978699 
	C379.796875,263.075775 377.672150,264.773499 375.763885,266.633179 
	C369.714478,272.528595 364.725861,280.558624 353.037964,276.172760 
	C356.135834,282.811829 358.557678,288.034119 361.006622,293.243652 
	C365.813354,303.468842 370.811707,313.609497 375.351410,323.951660 
	C376.862579,327.394348 378.787231,328.734528 382.422150,328.552307 
	C385.552521,328.395416 388.709686,328.773010 391.726776,328.908539 
	C391.726776,340.567749 391.726776,351.983215 391.726776,362.986816 
	C379.714874,362.986816 368.304535,363.075897 356.901459,362.829773 
	C355.912415,362.808441 354.674774,360.710663 354.051605,359.349030 
	C342.436035,333.969604 330.706421,308.638855 319.491669,283.082397 
	C317.087494,277.603790 314.416870,274.588501 308.268158,275.682556 
	C307.016754,275.905212 305.691895,275.714783 303.540802,275.714783 
	C303.540802,292.412598 303.540802,308.863068 303.540802,325.988647 
	C307.911255,326.207397 313.115021,326.467865 317.939697,326.709351 
	C317.939697,338.607178 317.939697,350.018860 317.939697,361.950287 
	C295.018402,361.260010 272.806122,360.591095 250.843231,359.929688 
	C250.843231,348.105530 250.843231,336.705475 250.843231,324.998657 
	C256.586914,324.998657 261.666229,324.998657 267.244293,324.998657 
	C267.838409,304.771637 268.423737,284.844116 269.009033,263.992859 
	C269.291473,252.388336 269.573944,241.707626 269.856415,231.026901 
M329.500885,241.000153 
	C335.917816,241.000153 342.334747,241.000153 349.014557,241.000153 
	C349.580536,221.684036 350.143890,202.458145 350.733551,182.333191 
	C335.962677,182.333191 321.595673,182.333191 306.752808,182.333191 
	C306.188385,201.269669 305.611145,220.635742 305.004791,240.979111 
	C313.220917,240.979111 320.862549,240.979111 329.500885,241.000153 
z"/>
<path fill="#63DAFD" opacity="1.000000" stroke="none" 
	d="
M269.446564,231.031464 
	C269.573944,241.707626 269.291473,252.388336 268.942902,263.529999 
	C251.446930,263.471619 234.017044,262.952332 216.917938,262.442871 
	C216.917938,251.298386 216.917938,240.732559 216.917938,229.848053 
	C222.688629,229.848053 227.757553,229.848053 233.194901,229.848053 
	C232.364822,226.233917 231.933365,222.898438 230.750702,219.854843 
	C230.204742,218.449783 228.205154,216.685226 226.840591,216.664474 
	C211.883896,216.436951 196.922455,216.521790 181.059998,216.521790 
	C180.245605,219.245117 179.032196,223.302826 177.585434,228.140839 
	C183.412674,228.477432 188.784332,228.787720 194.150024,229.097656 
	C194.150024,239.870117 194.150024,250.562653 194.150024,261.797363 
	C174.210236,261.190002 154.968933,260.603912 135.238510,260.023804 
	C133.550812,256.375793 132.352219,252.721802 131.103714,248.713074 
	C131.407013,241.433395 131.760223,234.508423 132.127197,227.313507 
	C133.142044,227.223709 133.927536,227.093613 134.712982,227.093811 
	C145.710770,227.096588 145.706207,227.099548 148.935516,216.325104 
	C163.962936,166.186752 178.992416,116.048981 194.025604,65.912346 
	C194.494064,64.350014 195.011459,62.802357 195.356094,61.719109 
	C204.890335,61.719109 214.021744,61.578148 223.136719,61.901249 
	C224.249847,61.940704 225.876907,64.325066 226.250473,65.868469 
	C232.232559,90.583687 238.068954,115.334305 243.898926,140.086182 
	C250.681564,168.882874 257.433746,197.686737 264.172974,226.493607 
	C264.795410,229.154175 265.221985,231.866135 269.446564,231.031464 
M216.060150,154.391312 
	C213.865158,144.622696 211.670166,134.854080 209.475174,125.085464 
	C209.100693,125.100449 208.726196,125.115433 208.351715,125.130409 
	C202.573074,144.272919 196.794434,163.415436 190.793625,183.293884 
	C201.586105,183.293884 211.822205,183.293884 222.523941,183.293884 
	C220.423981,173.970963 218.311493,164.592407 216.060150,154.391312 
z"/>
<path fill="#62D7FB" opacity="1.000000" stroke="none" 
	d="
M45.574127,161.517059 
	C50.742950,122.293221 64.077682,86.943642 89.427277,56.681286 
	C99.771622,44.332211 111.924202,34.001392 125.701103,25.619631 
	C126.876709,24.904400 128.176285,24.392912 129.418259,23.786772 
	C129.864532,24.328876 130.310791,24.870983 130.757065,25.413090 
	C129.743744,25.896317 128.617935,26.228027 127.733315,26.884642 
	C94.797112,51.331642 75.121941,84.556374 64.115303,123.432388 
	C55.895287,152.465927 54.186562,182.054138 56.725636,212.030502 
	C61.575497,269.287964 81.210289,321.185425 113.975418,368.063416 
	C142.968689,409.544891 179.641510,442.395721 226.652573,462.359497 
	C263.325287,477.932983 301.199921,483.068451 340.315826,472.224335 
	C341.048431,472.021210 341.860504,472.104584 342.635498,472.054291 
	C342.759430,472.534821 342.883362,473.015381 343.007324,473.495911 
	C335.117737,475.686035 327.320526,478.317108 319.323120,479.992432 
	C277.546265,488.743835 238.117004,480.621857 200.898819,461.416107 
	C140.893875,430.451691 99.890732,381.563751 71.995491,320.987854 
	C51.019894,275.438293 41.553814,227.530762 44.026848,177.368469 
	C44.280693,172.219574 44.990314,167.093155 45.574127,161.517059 
z"/>
<path fill="#00AADE" opacity="1.000000" stroke="none" 
	d="
M213.846527,42.836403 
	C240.171600,38.075569 265.386383,40.852104 289.788727,50.375904 
	C337.945160,69.170486 372.599487,103.271973 398.399017,147.194351 
	C419.638763,183.353989 431.477112,222.383667 432.410767,264.341766 
	C433.339905,306.094269 423.981323,344.984375 397.375305,378.391327 
	C388.476654,389.564545 377.865021,398.876953 365.615540,406.263458 
	C364.144379,407.150574 362.447449,407.663330 362.062195,407.829376 
	C370.641968,398.686859 380.747375,389.517548 388.931274,378.871124 
	C406.945984,355.435669 415.705414,328.084869 418.888977,298.986694 
	C423.604980,255.881805 416.023834,214.616684 397.854187,175.473770 
	C377.339417,131.278717 347.727112,94.619492 305.336975,69.438530 
	C281.483032,55.268608 255.728760,46.530979 227.739868,46.423145 
	C217.498138,46.383690 207.246658,48.394337 197.004120,49.511017 
	C195.277695,49.699242 193.574203,50.097874 191.860123,50.399292 
	C191.738312,49.906998 191.616486,49.414700 191.494675,48.922405 
	C198.803864,46.917503 206.113068,44.912601 213.846527,42.836403 
z"/>
<path fill="#0F223D" opacity="1.000000" stroke="none" 
	d="
M329.002533,240.989624 
	C320.862549,240.979111 313.220917,240.979111 305.004791,240.979111 
	C305.611145,220.635742 306.188385,201.269669 306.752808,182.333191 
	C321.595673,182.333191 335.962677,182.333191 350.733551,182.333191 
	C350.143890,202.458145 349.580536,221.684036 349.014557,241.000153 
	C342.334747,241.000153 335.917816,241.000153 329.002533,240.989624 
z"/>
<path fill="#0F243F" opacity="1.000000" stroke="none" 
	d="
M216.129578,154.802582 
	C218.311493,164.592407 220.423981,173.970963 222.523941,183.293884 
	C211.822205,183.293884 201.586105,183.293884 190.793625,183.293884 
	C196.794434,163.415436 202.573074,144.272919 208.351715,125.130409 
	C208.726196,125.115433 209.100693,125.100449 209.475174,125.085464 
	C211.670166,134.854080 213.865158,144.622696 216.129578,154.802582 
z"/>
</svg>